<svg width="113" height="115" viewBox="0 0 113 115" fill="none" xmlns="http://www.w3.org/2000/svg">
<path d="M106.177 16.9658C96.9166 11.3743 81.6466 24.8426 77.7666 28.513C78.5493 26.1853 79.9052 24.0974 81.7066 22.4462C81.7488 22.4127 81.7826 22.3696 81.8052 22.3204C81.8278 22.2712 81.8386 22.2173 81.8366 22.163C81.8367 22.1109 81.824 22.0596 81.7996 22.0137C81.7751 21.9678 81.7397 21.9288 81.6966 21.9002C80.8388 21.3139 79.8318 20.9908 78.7966 20.9699C79.3293 20.3063 80.0137 19.7838 80.7907 19.4473C81.5677 19.1109 82.414 18.9706 83.2566 19.0386C83.3188 19.0479 83.3823 19.0385 83.4392 19.0116C83.4961 18.9846 83.5439 18.9412 83.5766 18.887C83.6082 18.8316 83.6249 18.7689 83.6249 18.705C83.6249 18.6411 83.6082 18.5783 83.5766 18.523C83.1678 17.8977 82.6031 17.3926 81.9393 17.0588C81.2756 16.725 80.5364 16.5744 79.7966 16.622C81.1066 15.6109 84.0766 15.2469 85.2766 15.2065C85.3406 15.2058 85.4031 15.1863 85.4563 15.1504C85.5096 15.1145 85.5514 15.0637 85.5766 15.0042C85.6012 14.9463 85.6095 14.8826 85.6007 14.8202C85.5919 14.7578 85.5662 14.699 85.5266 14.6503C84.3686 13.2884 82.7269 12.4421 80.9566 12.2944C82.6166 10.2721 87.5366 9.66542 87.5866 9.65531C87.6568 9.64986 87.7233 9.62116 87.7757 9.57363C87.8282 9.5261 87.8636 9.46241 87.8766 9.39244C87.8931 9.35327 87.9017 9.31119 87.9021 9.26863C87.9025 9.22608 87.8946 9.18388 87.8788 9.14443C87.863 9.10499 87.8396 9.06906 87.8101 9.03875C87.7806 9.00843 87.7454 8.9843 87.7066 8.96774C86.1459 7.96282 84.3764 7.33646 82.5366 7.13759C84.5366 4.62998 90.8966 3.09305 90.9666 3.09305C91.0344 3.07699 91.0957 3.04024 91.1423 2.9878C91.1888 2.93535 91.2182 2.86973 91.2266 2.79981C91.2344 2.73083 91.2215 2.66107 91.1893 2.5997C91.1572 2.53834 91.1074 2.48825 91.0466 2.45603C86.7866 0.211309 81.5866 2.39536 81.3466 2.45603C75.3466 5.48944 75.0766 15.5502 75.7066 22.517C73.3466 14.0538 68.2166 0.797781 59.1466 0.100098C58.8466 0.100098 51.7766 0.100074 47.8966 4.72096C47.8575 4.7772 47.8364 4.8443 47.8364 4.91308C47.8364 4.98186 47.8575 5.04896 47.8966 5.1052C47.9316 5.16565 47.9835 5.21426 48.0458 5.24486C48.1081 5.27546 48.178 5.28669 48.2466 5.27711C48.3366 5.27711 56.7866 3.89183 60.2466 6.01522C58.1359 7.12183 56.321 8.72797 54.9566 10.6968C54.9157 10.7561 54.8938 10.8267 54.8938 10.899C54.8938 10.9713 54.9157 11.0419 54.9566 11.1012C54.9973 11.1591 55.0547 11.2028 55.121 11.2264C55.1872 11.2499 55.2591 11.2521 55.3266 11.2327C55.3966 11.2327 61.6666 9.4632 64.5466 11.1821C63.5326 11.6791 62.6272 12.3762 61.8836 13.2323C61.1399 14.0884 60.5732 15.0862 60.2166 16.167C60.196 16.2285 60.1935 16.2947 60.2095 16.3575C60.2254 16.4204 60.2592 16.4772 60.3066 16.5209C60.3514 16.5665 60.4086 16.5976 60.471 16.6102C60.5333 16.6228 60.5979 16.6164 60.6566 16.5917C62.1466 16.0356 66.0266 14.9335 68.0266 15.6817C67.1058 15.9526 66.2756 16.4724 65.6253 17.1851C64.9751 17.8978 64.5295 18.7764 64.3366 19.7262C64.3269 19.7895 64.3349 19.8543 64.3596 19.9132C64.3843 19.9722 64.4248 20.023 64.4766 20.0599C64.5313 20.0919 64.5934 20.1087 64.6566 20.1087C64.7198 20.1087 64.7819 20.0919 64.8366 20.0599C65.8257 19.5449 66.9277 19.2916 68.0398 19.3234C69.1519 19.3552 70.2379 19.6712 71.1966 20.2419C69.948 20.7531 68.879 21.6299 68.1266 22.7596C68.1021 22.8064 68.0893 22.8584 68.0893 22.9113C68.0893 22.9642 68.1021 23.0163 68.1266 23.063C68.1451 23.1128 68.1745 23.1578 68.2126 23.1946C68.2507 23.2313 68.2965 23.2589 68.3466 23.2753C71.29 24.343 73.9088 26.1652 75.9466 28.5636C71.0066 26.6323 54.2466 20.8183 48.3666 28.5636C48.2266 28.7759 44.9166 33.8215 46.3666 38.7659C46.3866 38.8322 46.4259 38.8909 46.4794 38.9342C46.533 38.9775 46.5983 39.0034 46.6666 39.0086H46.7166C46.7766 39.0021 46.8338 38.9801 46.8829 38.9447C46.9319 38.9092 46.9711 38.8616 46.9966 38.8064C46.9966 38.7356 49.9166 32.2239 52.9366 30.7173C52.7565 32.7117 53.0443 34.721 53.7766 36.5819C53.7999 36.6484 53.8433 36.7057 53.9008 36.7457C53.9583 36.7857 54.0269 36.8062 54.0966 36.8043C54.1685 36.8032 54.2381 36.7792 54.2956 36.7356C54.3531 36.692 54.3955 36.6311 54.4166 36.5616C54.4166 36.5111 56.0666 31.3745 58.5266 30.0499C58.4171 30.9958 58.4932 31.9543 58.7506 32.8704C59.008 33.7865 59.4416 34.6423 60.0266 35.3887C60.0667 35.4383 60.1201 35.4752 60.1804 35.4949C60.2407 35.5146 60.3054 35.5164 60.3666 35.4999C60.4282 35.4873 60.4848 35.4566 60.5293 35.4116C60.5737 35.3667 60.6041 35.3095 60.6166 35.2471C60.9066 33.9731 61.8766 30.8386 63.2466 29.6859C63.0376 30.462 63.0367 31.2804 63.2441 32.057C63.4515 32.8336 63.8596 33.5403 64.4266 34.1046C64.4733 34.147 64.5304 34.176 64.592 34.1885C64.6536 34.2009 64.7174 34.1964 64.7766 34.1753C64.8364 34.1516 64.8885 34.1117 64.9273 34.0599C64.9661 34.0082 64.9901 33.9467 64.9966 33.8821C65.102 32.9683 65.4255 32.094 65.9395 31.3348C66.4534 30.5756 67.1422 29.9542 67.9466 29.5241C67.7474 30.6283 67.8726 31.7672 68.3066 32.8002C68.3266 32.8487 68.358 32.8916 68.3981 32.925C68.4382 32.9585 68.4857 32.9816 68.5366 32.9923C68.5871 33.0036 68.6395 33.0031 68.6897 32.9908C68.74 32.9786 68.7868 32.9549 68.8266 32.9215C69.6167 32.2949 70.4798 31.7686 71.3966 31.3543C70.9962 31.7279 70.6853 32.1889 70.4878 32.7023C70.2902 33.2157 70.2111 33.7679 70.2566 34.3169C70.338 35.2808 70.7945 36.1725 71.5258 36.7963C72.2571 37.42 73.2033 37.7248 74.1566 37.6435C74.9403 37.574 75.679 37.2433 76.2566 36.7032C77.1066 38.9479 80.3566 49.7064 74.8566 71.0818C67.4366 73.3366 66.2566 75.7027 65.2266 77.7957C64.8926 78.5562 64.4476 79.2618 63.9066 79.8888C63.3838 80.6361 63.0746 81.5144 63.0129 82.4276C62.9512 83.3408 63.1393 84.2536 63.5566 85.0658C64.9266 87.9577 69.4366 91.1326 83.0966 89.9698C92.4966 89.1609 98.2866 86.9364 100.307 83.357C100.717 82.6714 100.963 81.8985 101.025 81.0997C101.088 80.301 100.965 79.4986 100.667 78.7563C98.6666 73.9231 93.5466 70.01 88.6666 69.5348C87.8866 61.7389 85.4966 43.4677 79.8366 36.1673C80.076 36.1925 80.3173 36.1925 80.5566 36.1673C81.5107 36.0824 82.3926 35.6187 83.0093 34.8777C83.6259 34.1367 83.927 33.1788 83.8466 32.2137C83.7844 31.4885 83.508 30.7989 83.0533 30.2345C82.5986 29.6702 81.9865 29.257 81.2966 29.0489C83.2229 28.8797 85.1637 29.0612 87.0266 29.5848C87.0718 29.6071 87.1213 29.6187 87.1716 29.6187C87.2219 29.6187 87.2715 29.6071 87.3166 29.5848C87.361 29.5567 87.3978 29.5181 87.424 29.4722C87.4501 29.4264 87.4648 29.3748 87.4666 29.3219C87.4918 28.0644 87.1434 26.8281 86.4666 25.7728C87.4828 25.8698 88.4591 26.2209 89.3075 26.7946C90.1559 27.3683 90.8498 28.1465 91.3266 29.059C91.3542 29.1159 91.3969 29.1639 91.4498 29.1978C91.5028 29.2317 91.564 29.2502 91.6266 29.2511C91.6893 29.2502 91.7504 29.2317 91.8034 29.1978C91.8563 29.1639 91.899 29.1159 91.9266 29.059C92.2895 28.2405 92.4254 27.3377 92.3197 26.4471C92.214 25.5565 91.8707 24.7117 91.3266 24.0033C93.2066 24.5594 95.5266 27.4412 96.3266 28.6546C96.361 28.7047 96.4076 28.745 96.4619 28.7716C96.5162 28.7982 96.5764 28.8101 96.6366 28.8062C96.7001 28.7967 96.7594 28.7687 96.8074 28.7256C96.8553 28.6825 96.8898 28.6262 96.9066 28.5636C97.2029 27.5608 97.3006 26.5087 97.1943 25.4677C97.0879 24.4267 96.7794 23.4171 96.2866 22.4967C99.3566 22.8001 103.137 27.4614 103.177 27.5524C103.221 27.6075 103.282 27.6477 103.35 27.6675C103.417 27.6874 103.49 27.686 103.557 27.6636C103.625 27.6411 103.684 27.596 103.724 27.5354C103.764 27.4749 103.782 27.4025 103.777 27.33C103.785 25.1129 103.271 22.9258 102.277 20.9497C105.987 21.2328 111.617 26.7941 111.677 26.8547C111.726 26.9038 111.789 26.936 111.857 26.9468C111.925 26.9577 111.995 26.9467 112.057 26.9154C112.118 26.8864 112.17 26.8388 112.204 26.7791C112.238 26.7193 112.253 26.6504 112.247 26.5817C111.817 20.9497 106.427 17.1377 106.177 16.9658ZM88.2866 73.1951C88.1557 74.2575 87.7249 75.2592 87.0457 76.0805C86.3665 76.9018 85.4676 77.5079 84.4566 77.8261C81.6166 78.8372 77.6066 78.1699 75.7066 76.37C75.3196 76.0523 75.0303 75.6295 74.8727 75.1513C74.715 74.6731 74.6956 74.1593 74.8166 73.6703L75.0566 72.7805C77.5162 73.7048 80.1358 74.1141 82.7566 73.9837C84.7979 73.9006 86.7288 73.024 88.1466 71.5368C88.2366 72.4569 88.2766 73.0434 88.2866 73.1951ZM88.0566 70.5661C84.6266 75.2275 76.7966 72.6895 75.2266 72.1132C75.6866 70.3942 76.09 68.7427 76.4366 67.1586C78.2039 68.2618 80.2789 68.7517 82.3466 68.5539C84.2207 68.3529 86.0291 67.7422 87.6466 66.7643C87.8166 68.2405 87.9566 69.5348 88.0566 70.5661ZM87.5566 66.0261C81.5566 69.6662 77.4366 67.0372 76.5566 66.4407C76.8966 64.8532 77.1766 63.3365 77.4266 61.8906C79.0389 62.417 80.7374 62.6196 82.4266 62.4871C83.9713 62.3633 85.47 61.8973 86.8166 61.1221C87.1466 62.8714 87.3666 64.5802 87.5566 66.0261ZM77.5566 61.203C77.8066 59.6863 78.0066 58.2303 78.1566 56.8652C79.4798 57.3546 80.893 57.5444 82.2966 57.4214C83.6081 57.3089 84.8802 56.9123 86.0266 56.2585C86.2966 57.664 86.5266 59.0493 86.7366 60.3941C85.3494 61.1658 83.8183 61.6363 82.241 61.7756C80.6637 61.9149 79.0751 61.7199 77.5766 61.203H77.5566ZM78.2266 56.1473C78.3566 54.8531 78.4566 53.6195 78.5166 52.4567C79.6463 52.836 80.8403 52.9805 82.0266 52.8814C83.1248 52.7824 84.1872 52.437 85.1366 51.8702C85.4066 53.0735 85.6666 54.2969 85.8966 55.5002C84.7498 56.1774 83.4682 56.5877 82.1449 56.7014C80.8217 56.8151 79.49 56.6293 78.2466 56.1575L78.2266 56.1473ZM78.5566 51.7388C78.5566 50.6568 78.6166 49.6356 78.6066 48.7054C79.3453 48.8413 80.0984 48.8787 80.8466 48.8166C82.0012 48.7378 83.1103 48.3313 84.0466 47.6437C84.3766 48.8166 84.6866 50.0198 84.9666 51.2332C84.0023 51.7827 82.9312 52.1134 81.8278 52.2025C80.7243 52.2915 79.615 52.1368 78.5766 51.7489L78.5566 51.7388ZM78.6066 47.9672C78.6066 46.764 78.5266 45.6619 78.4366 44.6507C78.9742 44.7738 79.5275 44.8113 80.0766 44.7619C81.0675 44.6716 82.0184 44.3232 82.8366 43.7508C83.1866 44.7619 83.5266 45.7731 83.8366 46.8752C83.0926 47.4168 82.2445 47.7948 81.3471 47.9846C80.4498 48.1744 79.523 48.1719 78.6266 47.9773L78.6066 47.9672ZM78.3766 43.9227C78.29 43.0734 78.1899 42.2948 78.0766 41.587C78.3925 41.6182 78.7107 41.6182 79.0266 41.587C79.9499 41.5219 80.8304 41.1686 81.5466 40.5758C81.9166 41.3746 82.2566 42.224 82.5966 43.1037C82.0059 43.5575 81.3201 43.8682 80.5919 44.0119C79.8638 44.1557 79.1128 44.1286 78.3966 43.9328L78.3766 43.9227ZM77.9666 40.8893C77.8166 40.0804 77.6666 39.3827 77.5166 38.7861C77.7228 38.8064 77.9304 38.8064 78.1366 38.7861C78.8913 38.7339 79.6018 38.407 80.1366 37.866C80.554 38.5178 80.9346 39.193 81.2766 39.8883C80.8371 40.2935 80.3137 40.5946 79.7445 40.7695C79.1754 40.9445 78.5749 40.9888 77.9866 40.8994L77.9666 40.8893ZM77.3166 38.0581C77.1266 37.3908 76.9566 36.8953 76.8266 36.5515H77.2566C77.787 36.5022 78.2997 36.3329 78.7566 36.0561C79.1132 36.4438 79.4471 36.8524 79.7566 37.2795C79.458 37.6153 79.0768 37.8651 78.6517 38.0036C78.2267 38.1421 77.7729 38.1644 77.3366 38.0682L77.3166 38.0581ZM78.6266 35.3381C78.2983 35.5656 77.9286 35.7248 77.5389 35.8064C77.1491 35.888 76.7472 35.8904 76.3566 35.8134C75.7377 35.6849 75.1764 35.3575 74.7565 34.8801C74.3366 34.4027 74.0806 33.8008 74.0266 33.1642C73.9922 32.7822 74.0328 32.397 74.1461 32.0309C74.2594 31.6647 74.4431 31.3249 74.6866 31.0307C74.9307 30.7243 75.2339 30.4713 75.5777 30.287C75.9215 30.1028 76.2988 29.9912 76.6866 29.9589H77.1166C77.4876 29.9778 77.8512 30.0706 78.1866 30.2319C78.6508 30.4531 79.0493 30.7937 79.3424 31.2196C79.6355 31.6455 79.8128 32.1417 79.8566 32.6586C79.9074 33.175 79.8222 33.6958 79.6097 34.1682C79.3972 34.6405 79.0649 35.0477 78.6466 35.3483L78.6266 35.3381ZM81.6266 3.15372C82.9094 2.65114 84.2561 2.33456 85.6266 2.21337C87.0588 2.06286 88.5062 2.23198 89.8666 2.70881C87.7766 3.29527 82.8666 4.89288 81.6266 7.33983C81.5947 7.39135 81.5777 7.4509 81.5777 7.51171C81.5777 7.57251 81.5947 7.6321 81.6266 7.68361C81.6579 7.73449 81.7024 7.77558 81.7554 7.80235C81.8083 7.82913 81.8676 7.84054 81.9266 7.83528C83.5259 7.87395 85.0914 8.30789 86.4866 9.0992C84.7066 9.43287 81.0566 10.3429 79.9966 12.4258C79.9677 12.4766 79.9524 12.5341 79.9524 12.5927C79.9524 12.6512 79.9677 12.7088 79.9966 12.7595C80.0274 12.8115 80.0716 12.854 80.1244 12.8825C80.1773 12.911 80.2368 12.9244 80.2966 12.9213C81.8352 12.9285 83.3182 13.5038 84.4666 14.5391C82.9466 14.6706 79.5166 15.166 78.6366 16.8546C78.6029 16.9092 78.5851 16.9723 78.5851 17.0366C78.5851 17.101 78.6029 17.164 78.6366 17.2186C78.6723 17.274 78.7245 17.3165 78.7855 17.3401C78.8466 17.3637 78.9135 17.3672 78.9766 17.3501C79.6006 17.2233 80.2455 17.2489 80.8577 17.4248C81.4699 17.6006 82.0318 17.9217 82.4966 18.3612C81.5342 18.3783 80.5925 18.646 79.7622 19.1384C78.9319 19.6308 78.2412 20.3312 77.7566 21.1722C77.7249 21.2256 77.7081 21.2868 77.7081 21.3491C77.7081 21.4114 77.7249 21.4726 77.7566 21.5261C77.7911 21.5786 77.8391 21.6205 77.8956 21.6472C77.952 21.674 78.0146 21.6845 78.0766 21.6777C79.0216 21.6117 79.967 21.8001 80.8166 22.2237C79.1181 23.8847 77.8271 25.9242 77.0466 28.1793C76.3366 23.3259 74.1166 6.99604 81.7066 3.16384L81.6266 3.15372ZM68.8566 22.8709C69.6653 21.9002 70.7247 21.1756 71.9166 20.7778C71.9766 20.7605 72.0308 20.7268 72.0731 20.6804C72.1154 20.634 72.1443 20.5768 72.1566 20.5149C72.1663 20.4526 72.1594 20.3888 72.1365 20.3302C72.1137 20.2715 72.0757 20.2201 72.0266 20.1812C71.0369 19.431 69.8713 18.9536 68.6442 18.7958C67.4171 18.638 66.1705 18.8054 65.0266 19.2813C65.8366 16.7535 68.6866 16.2479 68.8166 16.1873C68.8805 16.179 68.9405 16.1514 68.9887 16.1081C69.0369 16.0648 69.071 16.0078 69.0866 15.9446C69.1013 15.881 69.0989 15.8147 69.0795 15.7524C69.0602 15.6901 69.0246 15.6343 68.9766 15.5907C67.1166 14.0133 62.6866 15.2368 60.9766 15.7929C61.8138 13.9173 63.3264 12.4348 65.2066 11.6472C65.2635 11.6278 65.314 11.593 65.3528 11.5467C65.3915 11.5004 65.4171 11.4443 65.4266 11.3844C65.4368 11.3254 65.4321 11.2648 65.4129 11.2082C65.3936 11.1517 65.3605 11.1009 65.3166 11.0608C63.0366 9.08909 58.0766 9.92834 55.9766 10.4036C57.269 8.69726 58.9688 7.35078 60.9166 6.49045C60.9729 6.47006 61.0229 6.43502 61.0615 6.38887C61.1001 6.34271 61.126 6.28709 61.1366 6.22758C61.1489 6.16863 61.1451 6.10742 61.1257 6.05045C61.1064 5.99349 61.0721 5.94288 61.0266 5.90401C58.3166 3.59862 51.5266 4.21539 49.0266 4.52884C52.8066 0.828089 59.0266 0.848328 59.0866 0.848328C70.0066 1.69768 75.1766 22.6787 76.3566 28.2703C74.3423 25.8851 71.7811 24.0347 68.8966 22.881L68.8566 22.8709ZM68.7066 32.2239C68.4411 31.2305 68.4411 30.1838 68.7066 29.1905C68.7252 29.1304 68.7266 29.0663 68.7107 29.0054C68.6947 28.9446 68.6622 28.8896 68.6166 28.8467C68.5731 28.8024 68.5182 28.7713 68.4581 28.757C68.398 28.7427 68.3351 28.7457 68.2766 28.7658C67.3074 29.1151 66.4432 29.7105 65.7672 30.495C65.0912 31.2794 64.6261 32.2265 64.4166 33.2451C64.0464 32.6559 63.823 31.9848 63.7655 31.2892C63.708 30.5936 63.8182 29.8942 64.0866 29.2511C64.1206 29.1985 64.1387 29.137 64.1387 29.0742C64.1387 29.0113 64.1206 28.9498 64.0866 28.8972C64.0438 28.8486 63.9881 28.8132 63.9261 28.7953C63.8642 28.7774 63.7984 28.7777 63.7366 28.7961C61.7966 29.3724 60.5966 32.962 60.1666 34.509C59.3004 33.0752 58.9938 31.3664 59.3066 29.7162C59.319 29.6582 59.3163 29.5979 59.2988 29.5411C59.2813 29.4844 59.2495 29.4333 59.2066 29.3927C59.1654 29.3482 59.1122 29.3169 59.0535 29.3025C58.9949 29.2881 58.9335 29.2913 58.8766 29.3118C56.4966 30.0095 54.8066 33.7608 54.1266 35.5505C53.5764 33.891 53.4356 32.1207 53.7166 30.3937C53.7332 30.3351 53.7336 30.273 53.7177 30.2141C53.7019 30.1553 53.6703 30.102 53.6266 30.06C53.584 30.0176 53.5308 29.9876 53.4727 29.9734C53.4146 29.9591 53.3537 29.9611 53.2966 29.9791C50.4866 30.8285 47.8266 35.7426 46.8166 37.7952C46.0866 33.4575 48.9066 29.15 48.9266 29.1197C50.6266 26.8952 53.3566 25.8942 56.4766 25.6211C63.5266 25.0145 72.4766 28.1692 75.7866 29.4331C73.2401 29.7784 70.8124 30.7354 68.7066 32.2239ZM74.5066 30.3533L74.3366 30.515H74.0366L74.5066 30.3533ZM70.8766 34.3978C70.8437 34.0093 70.887 33.618 71.004 33.2464C71.121 32.8748 71.3094 32.5303 71.5584 32.2325C71.8074 31.9347 72.1121 31.6896 72.455 31.5111C72.7979 31.3326 73.1723 31.2244 73.5566 31.1925H73.8566V31.2431C73.8566 31.2936 73.8066 31.3543 73.7766 31.4048C73.7082 31.5426 73.6481 31.6844 73.5966 31.8295L73.5366 32.0419C73.4961 32.1844 73.4661 32.3297 73.4466 32.4766V32.6688C73.4266 32.8874 73.4266 33.1074 73.4466 33.326C73.462 33.5102 73.492 33.6928 73.5366 33.872C73.5366 33.9327 73.5366 33.9933 73.5866 34.054L73.7066 34.3978L73.7966 34.5899C73.8439 34.6909 73.8974 34.7888 73.9566 34.8832L74.0766 35.0753C74.1343 35.1637 74.1978 35.2482 74.2666 35.3281L74.4166 35.4999C74.4882 35.5824 74.565 35.6601 74.6466 35.7325L74.8166 35.874C74.9023 35.9471 74.9925 36.0146 75.0866 36.0763L75.2566 36.1875C75.4007 36.2704 75.5512 36.3414 75.7066 36.3999C75.2445 36.7968 74.6709 37.0372 74.0666 37.0874C73.6747 37.1248 73.2795 37.0822 72.9042 36.9622C72.5289 36.8422 72.1813 36.6472 71.8819 36.3888C71.5826 36.1305 71.3375 35.8139 71.1614 35.458C70.9853 35.1021 70.8816 34.7141 70.8566 34.3169L70.8766 34.3978ZM100.027 79.181C100.282 79.8365 100.383 80.5431 100.322 81.2449C100.262 81.9468 100.041 82.6248 99.6766 83.2255C98.3666 85.5309 94.4066 88.4936 83.0066 89.4845C69.0066 90.6877 65.1766 87.169 64.1266 84.9546C63.7747 84.2647 63.6114 83.4923 63.6536 82.7173C63.6958 81.9422 63.9419 81.1927 64.3666 80.546C64.9542 79.8705 65.4395 79.1106 65.8066 78.2912C66.8066 76.2689 67.8566 74.186 74.6166 72.0525C74.4866 72.5682 74.3466 73.0636 74.2066 73.6096C74.0416 74.2177 74.0559 74.8613 74.2478 75.4613C74.4397 76.0613 74.8007 76.5915 75.2866 76.9868C76.2862 77.7926 77.4331 78.3913 78.6616 78.7487C79.8902 79.1061 81.1763 79.2152 82.4466 79.0698C83.2234 79.0029 83.9891 78.8399 84.7266 78.5844C85.8594 78.224 86.8655 77.5412 87.6246 76.6177C88.3836 75.6942 88.8634 74.5691 89.0066 73.3771V73.3063C89.0066 73.094 88.9166 72.0424 88.7566 70.4144C91.1939 70.8141 93.496 71.816 95.4585 73.3311C97.421 74.8463 98.9833 76.8279 100.007 79.1001L100.027 79.181ZM83.1666 32.4665C83.1995 32.8543 83.1566 33.2448 83.0402 33.6157C82.9238 33.9867 82.7363 34.3308 82.4883 34.6285C82.2404 34.9261 81.9369 35.1715 81.5951 35.3505C81.2534 35.5295 80.8801 35.6387 80.4966 35.6718C80.1612 35.7047 79.8226 35.6773 79.4966 35.5909C79.5566 35.5404 79.5966 35.4797 79.6566 35.4191L79.7366 35.3281C79.8266 35.2168 79.9166 35.0955 79.9966 34.9742C80.0666 34.8629 80.1266 34.7416 80.1866 34.6304L80.2466 34.4989C80.2466 34.4079 80.3166 34.3169 80.3466 34.2158C80.3766 34.1147 80.3466 34.1147 80.3966 34.0641C80.4258 33.9713 80.4492 33.8768 80.4666 33.781V33.6294V33.326C80.4712 33.2789 80.4712 33.2315 80.4666 33.1845C80.4766 33.0329 80.4766 32.8809 80.4666 32.7294C80.4666 32.5778 80.4666 32.4362 80.3966 32.2845C80.3266 32.1329 80.3966 32.1935 80.3966 32.143C80.3966 32.0924 80.3466 31.9509 80.3166 31.8599L80.2566 31.6981C80.2241 31.612 80.1874 31.5276 80.1466 31.4453C80.1239 31.3927 80.0971 31.342 80.0666 31.2936C80.0666 31.2127 79.9766 31.1318 79.9266 31.0509L79.8366 30.9195C79.7753 30.8251 79.7049 30.7371 79.6266 30.6566L79.5666 30.5757C79.4716 30.4729 79.3715 30.375 79.2666 30.2825L79.1466 30.1915L78.9766 30.0499C79.2748 29.918 79.5923 29.836 79.9166 29.8072C80.6821 29.7215 81.4502 29.944 82.0546 30.4266C82.6591 30.9091 83.0514 31.6129 83.1466 32.3856L83.1666 32.4665ZM101.707 20.3329C101.648 20.3384 101.591 20.3589 101.542 20.3925C101.493 20.4261 101.453 20.4717 101.427 20.525C101.398 20.5776 101.383 20.6368 101.383 20.6969C101.383 20.7571 101.398 20.8162 101.427 20.8688C102.427 22.5549 102.997 24.4659 103.087 26.43C101.717 24.9133 98.4566 21.6777 95.7166 21.9204C95.6586 21.9246 95.6028 21.9447 95.5552 21.9785C95.5076 22.0124 95.4701 22.0587 95.4466 22.1125C95.4177 22.1651 95.4026 22.2243 95.4026 22.2844C95.4026 22.3446 95.4177 22.4037 95.4466 22.4563C96.4283 24.0544 96.7849 25.9654 96.4466 27.8153C95.4466 26.4402 92.7266 23.1742 90.4966 23.3764C90.4317 23.3793 90.3691 23.4022 90.3173 23.4419C90.2655 23.4816 90.2269 23.5364 90.2066 23.5989C90.182 23.659 90.1764 23.7253 90.1908 23.7887C90.2051 23.8521 90.2386 23.9095 90.2866 23.9528C90.8289 24.5136 91.2259 25.2011 91.4422 25.9543C91.6585 26.7075 91.6875 27.5031 91.5266 28.2703C90.9056 27.3113 90.052 26.529 89.0472 25.998C88.0424 25.467 86.9199 25.205 85.7866 25.2369C85.7234 25.241 85.6624 25.2618 85.6098 25.2973C85.5571 25.3328 85.5146 25.3817 85.4866 25.4391C85.462 25.4971 85.4537 25.5608 85.4625 25.6232C85.4714 25.6856 85.497 25.7444 85.5366 25.7931C86.2216 26.7252 86.637 27.8313 86.7366 28.9882C84.8745 28.5189 82.9478 28.3685 81.0366 28.5433C80.1105 28.6297 79.1916 28.7818 78.2866 28.9983C82.2866 25.3077 97.1366 12.3854 105.777 17.6129C105.827 17.6129 110.517 20.9598 111.447 25.7728C109.707 24.0539 104.937 19.9992 101.707 20.2824V20.3329Z" fill="#E5E5E5"/>
<path d="M60.1766 41.2344C50.9166 35.6428 35.6466 49.1111 31.7666 52.7815C32.5493 50.4538 33.9052 48.366 35.7066 46.7147C35.7488 46.6812 35.7826 46.6382 35.8052 46.5889C35.8278 46.5397 35.8386 46.4858 35.8366 46.4316C35.8367 46.3795 35.824 46.3281 35.7996 46.2822C35.7751 46.2363 35.7397 46.1973 35.6966 46.1687C34.8388 45.5825 33.8318 45.2594 32.7966 45.2385C33.3293 44.5749 34.0137 44.0523 34.7907 43.7159C35.5677 43.3794 36.414 43.2391 37.2566 43.3072C37.3188 43.3165 37.3823 43.3071 37.4392 43.2801C37.4961 43.2531 37.5439 43.2098 37.5766 43.1555C37.6082 43.1002 37.6249 43.0374 37.6249 42.9735C37.6249 42.9096 37.6082 42.8469 37.5766 42.7915C37.1678 42.1662 36.6031 41.6611 35.9393 41.3274C35.2756 40.9936 34.5364 40.8429 33.7966 40.8906C35.1066 39.8795 38.0766 39.5155 39.2766 39.475C39.3406 39.4744 39.4031 39.4549 39.4563 39.419C39.5096 39.3831 39.5514 39.3323 39.5766 39.2728C39.6012 39.2148 39.6095 39.1512 39.6007 39.0887C39.5919 39.0263 39.5662 38.9676 39.5266 38.9189C38.3686 37.557 36.7269 36.7106 34.9566 36.5629C36.6166 34.5407 41.5366 33.934 41.5866 33.9239C41.6568 33.9184 41.7233 33.8897 41.7757 33.8422C41.8282 33.7947 41.8636 33.731 41.8766 33.661C41.8931 33.6218 41.9017 33.5797 41.9021 33.5372C41.9025 33.4946 41.8946 33.4524 41.8788 33.413C41.863 33.3735 41.8396 33.3376 41.8101 33.3073C41.7806 33.277 41.7454 33.2529 41.7066 33.2363C40.1459 32.2314 38.3764 31.605 36.5366 31.4061C38.5366 28.8985 44.8966 27.3616 44.9666 27.3616C45.0344 27.3455 45.0957 27.3088 45.1423 27.2564C45.1888 27.2039 45.2182 27.1383 45.2266 27.0684C45.2344 26.9994 45.2215 26.9296 45.1893 26.8683C45.1572 26.8069 45.1074 26.7568 45.0466 26.7246C40.7866 24.4799 35.5866 26.6639 35.3466 26.7246C29.3466 29.758 29.0766 39.8188 29.7066 46.7855C27.3466 38.3223 22.2166 25.0663 13.1466 24.3687C12.8466 24.3687 5.77662 24.3686 1.89662 28.9895C1.85745 29.0458 1.83643 29.1129 1.83643 29.1816C1.83643 29.2504 1.85745 29.3175 1.89662 29.3738C1.93159 29.4342 1.98348 29.4828 2.04578 29.5134C2.10809 29.544 2.17798 29.5552 2.24659 29.5457C2.33659 29.5457 10.7866 28.1604 14.2466 30.2838C12.1359 31.3904 10.321 32.9965 8.95661 34.9653C8.91575 35.0247 8.89384 35.0953 8.89384 35.1676C8.89384 35.2399 8.91575 35.3104 8.95661 35.3698C8.99731 35.4276 9.05473 35.4714 9.12098 35.4949C9.18723 35.5184 9.25906 35.5206 9.32661 35.5012C9.39661 35.5012 15.6666 33.7318 18.5466 35.4507C17.5326 35.9477 16.6272 36.6447 15.8836 37.5008C15.1399 38.3569 14.5732 39.3547 14.2166 40.4356C14.196 40.497 14.1935 40.5632 14.2095 40.6261C14.2254 40.6889 14.2592 40.7457 14.3066 40.7895C14.3514 40.8351 14.4086 40.8662 14.471 40.8788C14.5333 40.8914 14.5979 40.885 14.6566 40.8603C16.1466 40.3041 20.0266 39.202 22.0266 39.9503C21.1058 40.2211 20.2756 40.7409 19.6253 41.4536C18.9751 42.1663 18.5295 43.045 18.3366 43.9948C18.3269 44.0581 18.3349 44.1228 18.3596 44.1818C18.3843 44.2407 18.4248 44.2915 18.4766 44.3285C18.5313 44.3604 18.5934 44.3772 18.6566 44.3772C18.7198 44.3772 18.7819 44.3604 18.8366 44.3285C19.8257 43.8135 20.9277 43.5601 22.0398 43.592C23.1519 43.6238 24.2379 43.9398 25.1966 44.5105C23.948 45.0217 22.879 45.8984 22.1266 47.0282C22.1021 47.0749 22.0893 47.127 22.0893 47.1799C22.0893 47.2327 22.1021 47.2848 22.1266 47.3315C22.1451 47.3814 22.1745 47.4264 22.2126 47.4631C22.2507 47.4999 22.2965 47.5275 22.3466 47.5439C25.29 48.6116 27.9088 50.4338 29.9466 52.8321C25.0066 50.9008 8.24659 45.0868 2.36659 52.8321C2.22659 53.0444 -1.08341 58.09 0.366586 63.0345C0.386562 63.1008 0.425902 63.1595 0.47944 63.2028C0.532978 63.2461 0.598262 63.272 0.666635 63.2771H0.716622C0.776567 63.2707 0.833826 63.2486 0.882882 63.2132C0.931938 63.1778 0.971095 63.1302 0.996591 63.0749C0.996591 63.0041 3.91662 56.4924 6.93662 54.9858C6.75649 56.9803 7.04428 58.9896 7.77662 60.8504C7.79985 60.9169 7.84333 60.9743 7.90083 61.0143C7.95832 61.0542 8.02688 61.0747 8.09663 61.0729C8.16848 61.0718 8.23814 61.0477 8.29563 61.0041C8.35312 60.9605 8.39547 60.8997 8.4166 60.8302C8.4166 60.7796 10.0666 55.6431 12.5266 54.3185C12.4171 55.2644 12.4932 56.2228 12.7506 57.139C13.008 58.0551 13.4416 58.9109 14.0266 59.6573C14.0667 59.7069 14.1201 59.7437 14.1804 59.7635C14.2407 59.7832 14.3054 59.7849 14.3666 59.7685C14.4282 59.7558 14.4848 59.7251 14.5293 59.6802C14.5737 59.6352 14.6041 59.578 14.6166 59.5157C14.9066 58.2417 15.8766 55.1071 17.2466 53.9545C17.0376 54.7306 17.0367 55.549 17.2441 56.3256C17.4515 57.1021 17.8596 57.8089 18.4266 58.3731C18.4733 58.4156 18.5304 58.4446 18.592 58.457C18.6536 58.4695 18.7174 58.4649 18.7766 58.4439C18.8364 58.4201 18.8885 58.3802 18.9273 58.3285C18.9661 58.2768 18.9901 58.2153 18.9966 58.1507C19.102 57.2368 19.4255 56.3626 19.9395 55.6034C20.4534 54.8442 21.1422 54.2227 21.9466 53.7927C21.7474 54.8968 21.8726 56.0358 22.3066 57.0688C22.3266 57.1173 22.358 57.1601 22.3981 57.1936C22.4382 57.2271 22.4857 57.2502 22.5366 57.2609C22.5871 57.2722 22.6395 57.2716 22.6897 57.2594C22.74 57.2471 22.7868 57.2234 22.8266 57.1901C23.6167 56.5635 24.4798 56.0371 25.3966 55.6229C24.9962 55.9964 24.6853 56.4575 24.4878 56.9709C24.2902 57.4843 24.2111 58.0365 24.2566 58.5855C24.338 59.5493 24.7945 60.4411 25.5258 61.0648C26.2571 61.6886 27.2033 61.9933 28.1566 61.9121C28.9403 61.8426 29.679 61.5118 30.2566 60.9717C31.1066 63.2165 34.3566 73.9749 28.8566 95.3503C21.4366 97.6052 20.2566 99.9712 19.2266 102.064C18.8926 102.825 18.4476 103.53 17.9066 104.157C17.3838 104.905 17.0746 105.783 17.0129 106.696C16.9512 107.609 17.1393 108.522 17.5566 109.334C18.9266 112.226 23.4366 115.401 37.0966 114.238C46.4966 113.429 52.2866 111.205 54.3066 107.626C54.7166 106.94 54.9627 106.167 55.0252 105.368C55.0877 104.57 54.9649 103.767 54.6666 103.025C52.6666 98.1916 47.5466 94.2785 42.6666 93.8033C41.8866 86.0075 39.4966 67.7362 33.8366 60.4358C34.076 60.4611 34.3173 60.4611 34.5566 60.4358C35.5107 60.351 36.3926 59.8873 37.0093 59.1462C37.6259 58.4052 37.927 57.4473 37.8466 56.4823C37.7844 55.757 37.508 55.0675 37.0533 54.5031C36.5986 53.9387 35.9865 53.5256 35.2966 53.3174C37.2229 53.1482 39.1637 53.3298 41.0266 53.8534C41.0718 53.8757 41.1213 53.8873 41.1716 53.8873C41.2219 53.8873 41.2715 53.8757 41.3166 53.8534C41.361 53.8253 41.3978 53.7866 41.424 53.7408C41.4501 53.695 41.4648 53.6433 41.4666 53.5905C41.4918 52.3329 41.1434 51.0967 40.4666 50.0414C41.4828 50.1383 42.4591 50.4895 43.3075 51.0632C44.1559 51.6369 44.8498 52.415 45.3266 53.3276C45.3542 53.3844 45.3969 53.4324 45.4498 53.4664C45.5028 53.5003 45.564 53.5187 45.6266 53.5197C45.6893 53.5187 45.7504 53.5003 45.8034 53.4664C45.8563 53.4324 45.899 53.3844 45.9266 53.3276C46.2895 52.5091 46.4254 51.6062 46.3197 50.7156C46.214 49.825 45.8707 48.9803 45.3266 48.2719C47.2066 48.828 49.5266 51.7097 50.3266 52.9231C50.361 52.9733 50.4076 53.0136 50.4619 53.0401C50.5162 53.0667 50.5764 53.0787 50.6366 53.0748C50.7001 53.0652 50.7594 53.0372 50.8074 52.9941C50.8553 52.951 50.8898 52.8947 50.9066 52.8321C51.2029 51.8293 51.3006 50.7773 51.1943 49.7362C51.0879 48.6952 50.7794 47.6856 50.2866 46.7653C53.3566 47.0686 57.1366 51.73 57.1766 51.821C57.2215 51.8761 57.2818 51.9162 57.3496 51.9361C57.4174 51.9559 57.4896 51.9546 57.5566 51.9322C57.6251 51.9097 57.684 51.8645 57.7239 51.804C57.7638 51.7434 57.7824 51.6711 57.7766 51.5985C57.785 49.3815 57.2708 47.1943 56.2766 45.2183C59.9866 45.5014 65.6166 51.0626 65.6766 51.1233C65.7257 51.1723 65.7888 51.2045 65.857 51.2154C65.9251 51.2263 65.995 51.2153 66.0566 51.184C66.1185 51.155 66.17 51.1074 66.204 51.0476C66.238 50.9879 66.2529 50.9189 66.2466 50.8503C65.8166 45.2183 60.4266 41.4063 60.1766 41.2344ZM42.2866 97.4636C42.1557 98.526 41.7249 99.5278 41.0457 100.349C40.3665 101.17 39.4676 101.776 38.4566 102.095C35.6166 103.106 31.6066 102.438 29.7066 100.639C29.3196 100.321 29.0303 99.898 28.8727 99.4198C28.715 98.9416 28.6956 98.4278 28.8166 97.9389L29.0566 97.049C31.5162 97.9733 34.1358 98.3827 36.7566 98.2523C38.7979 98.1691 40.7288 97.2926 42.1466 95.8054C42.2366 96.7255 42.2766 97.3119 42.2866 97.4636ZM42.0566 94.8347C38.6266 99.496 30.7966 96.9581 29.2266 96.3817C29.6866 94.6628 30.09 93.0112 30.4366 91.4271C32.2039 92.5303 34.2789 93.0203 36.3466 92.8225C38.2207 92.6214 40.0291 92.0108 41.6466 91.0328C41.8166 92.5091 41.9566 93.8033 42.0566 94.8347ZM41.5566 90.2947C35.5566 93.9348 31.4366 91.3058 30.5566 90.7092C30.8966 89.1217 31.1766 87.605 31.4266 86.1591C33.0389 86.6855 34.7374 86.8882 36.4266 86.7557C37.9713 86.6319 39.47 86.1658 40.8166 85.3907C41.1466 87.1399 41.3666 88.8487 41.5566 90.2947ZM31.5566 85.4716C31.8066 83.9549 32.0066 82.4988 32.1566 81.1338C33.4798 81.6231 34.893 81.813 36.2966 81.6899C37.6081 81.5775 38.8802 81.1809 40.0266 80.5271C40.2966 81.9326 40.5266 83.3178 40.7366 84.6626C39.3494 85.4343 37.8183 85.9049 36.241 86.0442C34.6637 86.1835 33.0751 85.9884 31.5766 85.4716H31.5566ZM32.2266 80.4159C32.3566 79.1216 32.4566 77.8881 32.5166 76.7252C33.6463 77.1046 34.8403 77.249 36.0266 77.1499C37.1248 77.051 38.1872 76.7056 39.1366 76.1388C39.4066 77.342 39.6666 78.5655 39.8966 79.7687C38.7498 80.4459 37.4682 80.8563 36.1449 80.97C34.8217 81.0837 33.49 80.8979 32.2466 80.426L32.2266 80.4159ZM32.5566 76.0073C32.5566 74.9254 32.6166 73.9042 32.6066 72.9739C33.3453 73.1098 34.0984 73.1472 34.8466 73.0852C36.0012 73.0064 37.1103 72.5998 38.0466 71.9122C38.3766 73.0851 38.6866 74.2884 38.9666 75.5018C38.0023 76.0512 36.9312 76.382 35.8278 76.471C34.7243 76.5601 33.615 76.4053 32.5766 76.0174L32.5566 76.0073ZM32.6066 72.2358C32.6066 71.0326 32.5266 69.9304 32.4366 68.9193C32.9742 69.0424 33.5275 69.0799 34.0766 69.0305C35.0675 68.9401 36.0184 68.5918 36.8366 68.0194C37.1866 69.0305 37.5266 70.0416 37.8366 71.1438C37.0926 71.6854 36.2445 72.0633 35.3471 72.2531C34.4498 72.443 33.523 72.4405 32.6266 72.2459L32.6066 72.2358ZM32.3766 68.1913C32.29 67.3419 32.1899 66.5633 32.0766 65.8555C32.3925 65.8868 32.7107 65.8868 33.0266 65.8555C33.9499 65.7904 34.8304 65.4371 35.5466 64.8444C35.9166 65.6432 36.2566 66.4926 36.5966 67.3722C36.0059 67.826 35.3201 68.1368 34.5919 68.2805C33.8638 68.4242 33.1128 68.3972 32.3966 68.2014L32.3766 68.1913ZM31.9666 65.1579C31.8166 64.3489 31.6666 63.6512 31.5166 63.0547C31.7228 63.075 31.9304 63.075 32.1366 63.0547C32.8913 63.0024 33.6018 62.6756 34.1366 62.1345C34.554 62.7864 34.9346 63.4615 35.2766 64.1568C34.8371 64.5621 34.3137 64.8632 33.7445 65.0381C33.1754 65.213 32.5749 65.2574 31.9866 65.1679L31.9666 65.1579ZM31.3166 62.3267C31.1266 61.6593 30.9566 61.1639 30.8266 60.8201H31.2566C31.787 60.7708 32.2997 60.6015 32.7566 60.3246C33.1132 60.7124 33.4471 61.1209 33.7566 61.5481C33.458 61.8838 33.0768 62.1336 32.6517 62.2722C32.2267 62.4107 31.7729 62.433 31.3366 62.3368L31.3166 62.3267ZM32.6266 59.6067C32.2983 59.8342 31.9286 59.9934 31.5389 60.075C31.1491 60.1566 30.7472 60.1589 30.3566 60.0819C29.7377 59.9534 29.1764 59.6261 28.7565 59.1487C28.3366 58.6712 28.0806 58.0693 28.0266 57.4328C27.9922 57.0507 28.0328 56.6656 28.1461 56.2994C28.2594 55.9333 28.4431 55.5934 28.6866 55.2993C28.9307 54.9929 29.2339 54.7398 29.5777 54.5556C29.9215 54.3713 30.2988 54.2597 30.6866 54.2275H31.1166C31.4876 54.2463 31.8512 54.3391 32.1866 54.5005C32.6508 54.7217 33.0493 55.0623 33.3424 55.4882C33.6355 55.914 33.8128 56.4103 33.8566 56.9272C33.9074 57.4436 33.8222 57.9644 33.6097 58.4367C33.3972 58.9091 33.0649 59.3162 32.6466 59.6168L32.6266 59.6067ZM35.6266 27.4223C36.9094 26.9197 38.2561 26.6031 39.6266 26.4819C41.0588 26.3314 42.5062 26.5005 43.8666 26.9774C41.7766 27.5638 36.8666 29.1614 35.6266 31.6084C35.5947 31.6599 35.5777 31.7195 35.5777 31.7803C35.5777 31.8411 35.5947 31.9007 35.6266 31.9522C35.6579 32.003 35.7024 32.0441 35.7554 32.0709C35.8083 32.0977 35.8676 32.1091 35.9266 32.1038C37.5259 32.1425 39.0914 32.5764 40.4866 33.3678C38.7066 33.7014 35.0566 34.6115 33.9966 36.6944C33.9677 36.7451 33.9524 36.8026 33.9524 36.8612C33.9524 36.9198 33.9677 36.9773 33.9966 37.0281C34.0274 37.08 34.0716 37.1225 34.1244 37.151C34.1773 37.1795 34.2368 37.1929 34.2966 37.1898C35.8352 37.197 37.3182 37.7724 38.4666 38.8077C36.9466 38.9391 33.5166 39.4345 32.6366 41.1231C32.6029 41.1777 32.5851 41.2408 32.5851 41.3052C32.5851 41.3695 32.6029 41.4326 32.6366 41.4872C32.6723 41.5425 32.7245 41.585 32.7855 41.6087C32.8466 41.6323 32.9135 41.6358 32.9766 41.6186C33.6006 41.4919 34.2455 41.5175 34.8577 41.6933C35.4699 41.8692 36.0318 42.1902 36.4966 42.6298C35.5342 42.6469 34.5925 42.9146 33.7622 43.4069C32.9319 43.8993 32.2412 44.5998 31.7566 45.4407C31.7249 45.4942 31.7081 45.5553 31.7081 45.6176C31.7081 45.68 31.7249 45.7412 31.7566 45.7946C31.7911 45.8471 31.8391 45.889 31.8956 45.9158C31.952 45.9425 32.0146 45.9531 32.0766 45.9463C33.0216 45.8803 33.967 46.0687 34.8166 46.4923C33.1181 48.1533 31.8271 50.1927 31.0466 52.4479C30.3366 47.5944 28.1166 31.2646 35.7066 27.4324L35.6266 27.4223ZM22.8566 47.1394C23.6653 46.1688 24.7247 45.4442 25.9166 45.0464C25.9766 45.029 26.0308 44.9953 26.0731 44.949C26.1154 44.9026 26.1443 44.8454 26.1566 44.7835C26.1663 44.7212 26.1594 44.6574 26.1365 44.5987C26.1137 44.5401 26.0757 44.4887 26.0266 44.4498C25.0369 43.6995 23.8713 43.2221 22.6442 43.0644C21.4171 42.9066 20.1705 43.0739 19.0266 43.5499C19.8366 41.0221 22.6866 40.5165 22.8166 40.4558C22.8805 40.4476 22.9405 40.42 22.9887 40.3767C23.0369 40.3334 23.071 40.2764 23.0866 40.2131C23.1013 40.1496 23.0989 40.0832 23.0795 40.0209C23.0602 39.9587 23.0246 39.9028 22.9766 39.8592C21.1166 38.2819 16.6866 39.5053 14.9766 40.0615C15.8138 38.1859 17.3264 36.7034 19.2066 35.9158C19.2635 35.8964 19.314 35.8616 19.3528 35.8153C19.3915 35.7689 19.4171 35.7128 19.4266 35.6529C19.4368 35.594 19.4321 35.5334 19.4129 35.4768C19.3936 35.4202 19.3605 35.3695 19.3166 35.3294C17.0366 33.3576 12.0766 34.1969 9.9766 34.6721C11.269 32.9658 12.9688 31.6193 14.9166 30.759C14.9729 30.7386 15.0229 30.7036 15.0615 30.6574C15.1001 30.6113 15.126 30.5556 15.1366 30.4961C15.1489 30.4372 15.1451 30.376 15.1257 30.319C15.1064 30.262 15.0721 30.2114 15.0266 30.1726C12.3166 27.8672 5.52662 28.4839 3.02662 28.7974C6.80662 25.0966 13.0266 25.1169 13.0866 25.1169C24.0066 25.9662 29.1766 46.9473 30.3566 52.5389C28.3423 50.1536 25.7811 48.3033 22.8966 47.1495L22.8566 47.1394ZM22.7066 56.4924C22.4411 55.4991 22.4411 54.4523 22.7066 53.459C22.7252 53.399 22.7266 53.3348 22.7107 53.274C22.6947 53.2132 22.6622 53.1581 22.6166 53.1152C22.5731 53.0709 22.5182 53.0399 22.4581 53.0256C22.398 53.0113 22.3351 53.0143 22.2766 53.0343C21.3074 53.3836 20.4432 53.9791 19.7672 54.7635C19.0912 55.548 18.6261 56.495 18.4166 57.5137C18.0464 56.9245 17.823 56.2534 17.7655 55.5577C17.708 54.8621 17.8182 54.1628 18.0866 53.5197C18.1206 53.4671 18.1387 53.4056 18.1387 53.3427C18.1387 53.2799 18.1206 53.2184 18.0866 53.1658C18.0438 53.1171 17.9881 53.0818 17.9261 53.0639C17.8642 53.046 17.7984 53.0462 17.7366 53.0647C15.7966 53.641 14.5966 57.2306 14.1666 58.7776C13.3004 57.3438 12.9938 55.6349 13.3066 53.9848C13.319 53.9267 13.3163 53.8664 13.2988 53.8097C13.2813 53.753 13.2495 53.7018 13.2066 53.6612C13.1654 53.6168 13.1122 53.5854 13.0535 53.5711C12.9949 53.5567 12.9335 53.5599 12.8766 53.5803C10.4966 54.278 8.80663 58.0294 8.12663 59.8191C7.57637 58.1596 7.43562 56.3893 7.71662 54.6623C7.7332 54.6036 7.73359 54.5415 7.71772 54.4827C7.70185 54.4239 7.67035 54.3706 7.62663 54.3286C7.58403 54.2861 7.53082 54.2562 7.4727 54.2419C7.41457 54.2277 7.3537 54.2297 7.29661 54.2477C4.48661 55.097 1.8266 60.0112 0.816598 62.0638C0.086598 57.726 2.90658 53.4186 2.92658 53.3882C4.62658 51.1637 7.3566 50.1627 10.4766 49.8897C17.5266 49.283 26.4766 52.4378 29.7866 53.7017C27.2401 54.047 24.8124 55.0039 22.7066 56.4924ZM28.5066 54.6218L28.3366 54.7836H28.0366L28.5066 54.6218ZM24.8766 58.6664C24.8437 58.2778 24.887 57.8865 25.004 57.515C25.121 57.1434 25.3094 56.7988 25.5584 56.5011C25.8074 56.2033 26.1121 55.9581 26.455 55.7796C26.7979 55.6012 27.1723 55.4929 27.5566 55.4611H27.8566V55.5116C27.8566 55.5622 27.8066 55.6228 27.7766 55.6734C27.7082 55.8112 27.6481 55.953 27.5966 56.0981L27.5366 56.3104C27.4961 56.4529 27.4661 56.5982 27.4466 56.7452V56.9373C27.4266 57.1559 27.4266 57.3759 27.4466 57.5945C27.462 57.7787 27.492 57.9613 27.5366 58.1406C27.5366 58.2012 27.5366 58.2619 27.5866 58.3226L27.7066 58.6664L27.7966 58.8585C27.8439 58.9594 27.8974 59.0574 27.9566 59.1517L28.0766 59.3438C28.1343 59.4323 28.1978 59.5167 28.2666 59.5966L28.4166 59.7685C28.4882 59.851 28.565 59.9287 28.6466 60.0011L28.8166 60.1426C28.9023 60.2156 28.9925 60.2832 29.0866 60.3448L29.2566 60.4561C29.4007 60.5389 29.5512 60.6099 29.7066 60.6684C29.2445 61.0653 28.6709 61.3058 28.0666 61.356C27.6747 61.3933 27.2795 61.3508 26.9042 61.2308C26.5289 61.1108 26.1813 60.9158 25.8819 60.6574C25.5826 60.399 25.3375 60.0825 25.1614 59.7266C24.9853 59.3707 24.8816 58.9826 24.8566 58.5855L24.8766 58.6664ZM54.0266 103.45C54.2819 104.105 54.3832 104.812 54.3225 105.513C54.2617 106.215 54.0406 106.893 53.6766 107.494C52.3666 109.799 48.4066 112.762 37.0066 113.753C23.0066 114.956 19.1766 111.438 18.1266 109.223C17.7747 108.533 17.6114 107.761 17.6536 106.986C17.6958 106.211 17.9419 105.461 18.3666 104.815C18.9542 104.139 19.4395 103.379 19.8066 102.56C20.8066 100.537 21.8566 98.4546 28.6166 96.3211C28.4866 96.8367 28.3466 97.3322 28.2066 97.8782C28.0416 98.4863 28.0559 99.1299 28.2478 99.7299C28.4397 100.33 28.8007 100.86 29.2866 101.255C30.2862 102.061 31.4331 102.66 32.6616 103.017C33.8902 103.375 35.1763 103.484 36.4466 103.338C37.2234 103.271 37.9891 103.108 38.7266 102.853C39.8594 102.493 40.8655 101.81 41.6246 100.886C42.3836 99.9628 42.8634 98.8377 43.0066 97.6456V97.5749C43.0066 97.3625 42.9166 96.3109 42.7566 94.683C45.1939 95.0826 47.496 96.0845 49.4585 97.5997C51.421 99.1149 52.9833 101.096 54.0066 103.369L54.0266 103.45ZM37.1666 56.7351C37.1995 57.1228 37.1566 57.5133 37.0402 57.8843C36.9238 58.2553 36.7363 58.5994 36.4883 58.897C36.2404 59.1947 35.9369 59.4401 35.5951 59.6191C35.2534 59.7981 34.8801 59.9073 34.4966 59.9404C34.1612 59.9732 33.8226 59.9458 33.4966 59.8595C33.5566 59.8089 33.5966 59.7483 33.6566 59.6876L33.7366 59.5966C33.8266 59.4854 33.9166 59.364 33.9966 59.2427C34.0666 59.1315 34.1266 59.0101 34.1866 58.8989L34.2466 58.7675C34.2466 58.6765 34.3166 58.5855 34.3466 58.4844C34.3766 58.3832 34.3466 58.3832 34.3966 58.3327C34.4258 58.2399 34.4492 58.1453 34.4666 58.0496V57.8979V57.5945C34.4712 57.5475 34.4712 57.5001 34.4666 57.453C34.4766 57.3015 34.4766 57.1495 34.4666 56.998C34.4666 56.8463 34.4666 56.7048 34.3966 56.5531C34.3266 56.4014 34.3966 56.4621 34.3966 56.4115C34.3966 56.361 34.3466 56.2194 34.3166 56.1284L34.2566 55.9666C34.2241 55.8806 34.1874 55.7962 34.1466 55.7139C34.1239 55.6613 34.0971 55.6105 34.0666 55.5622C34.0666 55.4813 33.9766 55.4004 33.9266 55.3195L33.8366 55.188C33.7753 55.0937 33.7049 55.0057 33.6266 54.9252L33.5666 54.8443C33.4716 54.7414 33.3715 54.6436 33.2666 54.551L33.1466 54.46L32.9766 54.3185C33.2748 54.1866 33.5923 54.1046 33.9166 54.0758C34.6821 53.9901 35.4502 54.2126 36.0546 54.6951C36.6591 55.1777 37.0514 55.8814 37.1466 56.6542L37.1666 56.7351ZM55.7066 44.6015C55.6477 44.6069 55.5911 44.6274 55.5421 44.661C55.4932 44.6946 55.4534 44.7402 55.4266 44.7936C55.3977 44.8462 55.3825 44.9053 55.3825 44.9655C55.3825 45.0256 55.3977 45.0848 55.4266 45.1374C56.4269 46.8235 56.9973 48.7344 57.0866 50.6986C55.7166 49.1819 52.4566 45.9463 49.7166 46.1889C49.6586 46.1931 49.6028 46.2132 49.5552 46.2471C49.5076 46.2809 49.4701 46.3272 49.4466 46.3811C49.4177 46.4336 49.4026 46.4928 49.4026 46.553C49.4026 46.6131 49.4177 46.6723 49.4466 46.7248C50.4283 48.3229 50.7849 50.234 50.4466 52.0839C49.4466 50.7087 46.7266 47.4428 44.4966 47.645C44.4317 47.6479 44.3691 47.6707 44.3173 47.7105C44.2655 47.7502 44.2269 47.8049 44.2066 47.8674C44.182 47.9275 44.1764 47.9939 44.1908 48.0573C44.2051 48.1207 44.2386 48.178 44.2866 48.2213C44.8289 48.7821 45.2259 49.4696 45.4422 50.2228C45.6585 50.976 45.6875 51.7716 45.5266 52.5389C44.9056 51.5798 44.052 50.7975 43.0472 50.2665C42.0424 49.7355 40.9199 49.4735 39.7866 49.5055C39.7234 49.5095 39.6624 49.5304 39.6098 49.5659C39.5571 49.6014 39.5146 49.6503 39.4866 49.7077C39.462 49.7657 39.4537 49.8293 39.4625 49.8917C39.4714 49.9542 39.497 50.0129 39.5366 50.0616C40.2216 50.9937 40.637 52.0999 40.7366 53.2568C38.8745 52.7874 36.9478 52.637 35.0366 52.8119C34.1105 52.8983 33.1916 53.0503 32.2866 53.2669C36.2866 49.5762 51.1366 36.6539 59.7766 41.8815C59.8266 41.8815 64.5166 45.2284 65.4466 50.0414C63.7066 48.3224 58.9366 44.2678 55.7066 44.5509V44.6015Z" fill="#E5E5E5"/>
</svg>
