<svg width="60" height="61" viewBox="0 0 60 61" fill="none" xmlns="http://www.w3.org/2000/svg">
<g filter="url(#filter0_d_1_375)">
<path fill-rule="evenodd" clip-rule="evenodd" d="M30 48.8844C41.0457 48.8844 50 39.8304 50 28.6617C50 17.493 41.0457 8.43896 30 8.43896C18.9543 8.43896 10 17.493 10 28.6617C10 39.8304 18.9543 48.8844 30 48.8844Z" fill="white"/>
</g>
<path d="M37.317 23.7667C36.7365 24.0242 36.118 24.1948 35.4731 24.2777C36.1365 23.8772 36.6429 23.2478 36.8809 22.4892C36.2624 22.8621 35.5795 23.1255 34.8517 23.2725C34.2643 22.6402 33.4273 22.2485 32.5141 22.2485C30.7424 22.2485 29.3161 23.7026 29.3161 25.4852C29.3161 25.7416 29.3375 25.9883 29.3902 26.223C26.7297 26.0918 24.3756 24.8025 22.7941 22.8384C22.518 23.3228 22.3561 23.8772 22.3561 24.474C22.3561 25.5947 22.9268 26.588 23.7775 27.1632C23.2634 27.1533 22.759 27.0024 22.3317 26.7646C22.3317 26.7745 22.3317 26.7873 22.3317 26.8001C22.3317 28.3726 23.4409 29.6787 24.8956 29.9795C24.6351 30.0515 24.3512 30.0861 24.0565 30.0861C23.8517 30.0861 23.6448 30.0742 23.4507 30.0308C23.8653 31.3123 25.0419 32.2543 26.4409 32.2849C25.3522 33.1461 23.9697 33.665 22.4731 33.665C22.2107 33.665 21.959 33.6532 21.7073 33.6206C23.1248 34.5449 24.8048 35.0727 26.6165 35.0727C32.5053 35.0727 35.7248 30.1403 35.7248 25.8649C35.7248 25.7219 35.72 25.5838 35.7131 25.4467C36.3483 24.9909 36.8819 24.4217 37.317 23.7667Z" fill="#444444"/>
<defs>
<filter id="filter0_d_1_375" x="0" y="0.438965" width="60" height="60.4456" filterUnits="userSpaceOnUse" color-interpolation-filters="sRGB">
<feFlood flood-opacity="0" result="BackgroundImageFix"/>
<feColorMatrix in="SourceAlpha" type="matrix" values="0 0 0 0 0 0 0 0 0 0 0 0 0 0 0 0 0 0 127 0" result="hardAlpha"/>
<feOffset dy="2"/>
<feGaussianBlur stdDeviation="5"/>
<feColorMatrix type="matrix" values="0 0 0 0 0 0 0 0 0 0 0 0 0 0 0 0 0 0 0.1 0"/>
<feBlend mode="normal" in2="BackgroundImageFix" result="effect1_dropShadow_1_375"/>
<feBlend mode="normal" in="SourceGraphic" in2="effect1_dropShadow_1_375" result="shape"/>
</filter>
</defs>
</svg>
