<svg width="68" height="69" viewBox="0 0 68 69" fill="none" xmlns="http://www.w3.org/2000/svg">
<g filter="url(#filter0_d_1_381)">
<path fill-rule="evenodd" clip-rule="evenodd" d="M34 56.9295C47.2548 56.9295 58 46.0647 58 32.6623C58 19.2598 47.2548 8.39502 34 8.39502C20.7452 8.39502 10 19.2598 10 32.6623C10 46.0647 20.7452 56.9295 34 56.9295Z" fill="#FA7436"/>
</g>
<g clip-path="url(#clip0_1_381)">
<path d="M40.5667 23.4946H28.5C27.1217 23.4946 26 24.6288 26 26.0225V38.2235C26 39.6175 27.1217 40.7513 28.5 40.7513H40.5667C41.9453 40.7513 43.0667 39.6175 43.0667 38.2235V26.0225C43.0667 24.6288 41.9453 23.4946 40.5667 23.4946ZM42.0667 38.2235C42.0667 39.0597 41.3937 39.7402 40.5667 39.7402H28.5C27.673 39.7402 27 39.0597 27 38.2235V26.0225C27 25.1863 27.673 24.5058 28.5 24.5058H40.5667C41.3937 24.5058 42.0667 25.1863 42.0667 26.0225V38.2235Z" fill="white"/>
<path d="M40.0334 25.5505C39.4821 25.5505 39.0334 26.0042 39.0334 26.5617C39.0334 27.1191 39.4821 27.5728 40.0334 27.5728C40.5848 27.5728 41.0334 27.1191 41.0334 26.5617C41.0334 26.0042 40.5848 25.5505 40.0334 25.5505Z" fill="white"/>
<path d="M34.5334 27.5728C32.0521 27.5728 30.0334 29.6139 30.0334 32.1229C30.0334 34.6318 32.0521 36.673 34.5334 36.673C37.0148 36.673 39.0334 34.6318 39.0334 32.1229C39.0334 29.6139 37.0148 27.5728 34.5334 27.5728ZM34.5334 35.6618C32.6034 35.6618 31.0334 34.0744 31.0334 32.1229C31.0334 30.1714 32.6034 28.5839 34.5334 28.5839C36.4634 28.5839 38.0334 30.1714 38.0334 32.1229C38.0334 34.0744 36.4634 35.6618 34.5334 35.6618Z" fill="white"/>
</g>
<defs>
<filter id="filter0_d_1_381" x="0" y="0.39502" width="68" height="68.5344" filterUnits="userSpaceOnUse" color-interpolation-filters="sRGB">
<feFlood flood-opacity="0" result="BackgroundImageFix"/>
<feColorMatrix in="SourceAlpha" type="matrix" values="0 0 0 0 0 0 0 0 0 0 0 0 0 0 0 0 0 0 127 0" result="hardAlpha"/>
<feOffset dy="2"/>
<feGaussianBlur stdDeviation="5"/>
<feColorMatrix type="matrix" values="0 0 0 0 0 0 0 0 0 0 0 0 0 0 0 0 0 0 0.1 0"/>
<feBlend mode="normal" in2="BackgroundImageFix" result="effect1_dropShadow_1_381"/>
<feBlend mode="normal" in="SourceGraphic" in2="effect1_dropShadow_1_381" result="shape"/>
</filter>
<clipPath id="clip0_1_381">
<rect width="17.0667" height="17.2567" fill="white" transform="translate(26 23.4946)"/>
</clipPath>
</defs>
</svg>
