<svg width="60" height="61" viewBox="0 0 60 61" fill="none" xmlns="http://www.w3.org/2000/svg">
<g filter="url(#filter0_d_1_378)">
<path fill-rule="evenodd" clip-rule="evenodd" d="M30 48.8844C41.0457 48.8844 50 39.8304 50 28.6617C50 17.493 41.0457 8.43896 30 8.43896C18.9543 8.43896 10 17.493 10 28.6617C10 39.8304 18.9543 48.8844 30 48.8844Z" fill="white"/>
</g>
<path fill-rule="evenodd" clip-rule="evenodd" d="M32.5449 26.4358C32.2326 26.3359 31.8735 26.2693 31.5456 26.2693C31.1397 26.2693 30.2654 26.5523 30.2654 27.1017V28.4168H32.3419V30.6309H30.2654V36.7405H28.1733V30.6309H27.1428V28.4168H28.1733V27.3014C28.1733 25.6201 28.8915 24.2217 30.6245 24.2217C31.2178 24.2217 32.2794 24.255 32.8571 24.4714L32.5449 26.4358Z" fill="#444444"/>
<defs>
<filter id="filter0_d_1_378" x="0" y="0.438965" width="60" height="60.4456" filterUnits="userSpaceOnUse" color-interpolation-filters="sRGB">
<feFlood flood-opacity="0" result="BackgroundImageFix"/>
<feColorMatrix in="SourceAlpha" type="matrix" values="0 0 0 0 0 0 0 0 0 0 0 0 0 0 0 0 0 0 127 0" result="hardAlpha"/>
<feOffset dy="2"/>
<feGaussianBlur stdDeviation="5"/>
<feColorMatrix type="matrix" values="0 0 0 0 0 0 0 0 0 0 0 0 0 0 0 0 0 0 0.1 0"/>
<feBlend mode="normal" in2="BackgroundImageFix" result="effect1_dropShadow_1_378"/>
<feBlend mode="normal" in="SourceGraphic" in2="effect1_dropShadow_1_378" result="shape"/>
</filter>
</defs>
</svg>
